<svg width="489" height="373" viewBox="0 0 489 373" fill="none" xmlns="http://www.w3.org/2000/svg">
<path d="M3 130.33C24.4273 130.33 71.293 128.227 87.3377 119.815C107.394 109.3 152.134 112.304 154.705 130.33C157.276 148.355 147.505 205.935 168.59 224.461C189.674 242.987 225.158 264.017 257.556 228.968C289.954 193.919 237.5 166.881 191.217 172.889C144.934 178.898 140.82 210.943 140.82 224.461C140.82 237.98 177.332 250.999 210.245 195.421C243.157 139.843 192.76 97.784 157.276 95.2805C121.793 92.777 91.4518 124.321 103.28 164.377C115.107 204.433 158.819 187.41 173.732 143.849C188.646 100.288 233.9 99.7868 249.328 119.815C264.755 139.843 297.7 198.425 242.128 211.443C186.557 224.461 116.136 192.417 117.164 95.2805C118.193 -1.85555 227.729 5.15427 249.328 41.7055C270.927 78.2567 297.142 114.808 282.754 134.335C268.366 153.863 188.646 165.379 191.217 75.2524C193.788 -14.8738 313.095 -7.36329 328.523 17.1711C343.951 41.7055 327.495 84.6754 231.329 126.825C135.163 168.974 198.931 252 263.727 252C328.523 252 355.779 232.973 368.635 202.931C381.491 172.889 364.521 115.309 318.238 95.2805C271.955 75.2524 193.274 54.223 163.962 81.2609C134.649 108.299 139.792 159.37 197.388 168.884C254.985 178.397 279.669 122.318 282.754 85.7672C285.84 49.216 317.724 34.6956 339.322 38.2005C360.921 41.7055 375.834 65.7391 375.32 104.794C374.806 143.849 353.721 178.898 318.238 190.914C282.754 202.931 205.102 173.39 231.329 95.2805C257.556 17.1711 321.838 56.2258 328.523 95.2805C335.208 134.335 258.584 171.888 269.384 217.952C280.183 264.017 338.808 221.958 350.122 195.421C361.435 168.884 343.951 138.341 303.839 134.335C263.727 130.33 227.729 158.87 231.329 188.411C234.929 217.952 268.355 227.466 299.725 211.443C331.094 195.421 303.839 140.344 303.839 104.794C303.839 69.244 331.609 66.7405 343.951 67.2412C356.293 67.7419 364.007 74.7518 363.492 95.2805C362.978 115.809 368.635 134.836 400.004 136.839C425.1 138.441 458.458 133.167 472 130.33" stroke="white"/>
<path d="M355.745 127C366.356 143.992 389.6 183.806 397.679 207.132C405.758 230.457 436.107 235.713 450.272 235.425" stroke="white"/>
<path d="M371.827 166.614C373.734 175.479 375.635 198.688 367.982 220.608C360.329 242.528 379.847 273.095 390.563 285.638" stroke="white"/>
<path d="M163.366 181.584C149.972 190.209 124.089 213.093 127.715 235.626C131.341 258.158 98.1741 252.544 81.1375 246.919" stroke="white"/>
<path d="M5.5894 126C5.43266 127.077 4.46091 129.338 1.82778 129.769C-1.46363 130.308 6.0596 129.769 7 133" stroke="white"/>
<path d="M86.8419 245.133C86.2743 246.036 84.4639 247.623 81.7633 246.754C78.3876 245.667 85.8356 248.78 85.4902 252.163" stroke="white"/>
<path d="M146.865 280.23C147.772 280.711 149.481 282.425 149.062 285.436C148.538 289.199 150.349 280.796 153.498 280.692" stroke="white"/>
<path d="M483.133 132.567C483.199 131.478 484.018 129.104 486.758 128.315C490.184 127.329 482.29 128.897 481 125.825" stroke="white"/>
<path d="M465.5 131.5L486 128.5" stroke="white"/>
<path d="M380.933 284.592C382.534 283.975 386.556 283.298 389.829 285.521C393.921 288.299 385.494 281.456 388.854 278.251" stroke="white"/>
<path d="M445.53 238.39C446.033 237.317 447.879 235.268 451.241 235.662C455.443 236.155 446.037 234.306 445.811 230.633" stroke="white"/>
<path d="M257.398 364.052C258.19 364.729 259.525 366.795 258.527 369.642C257.278 373.2 260.692 365.401 263.791 366.018" stroke="white"/>
<path d="M251 235C241.063 244.8 214.248 263.91 186.485 261.95C158.721 259.99 150.593 275.833 150 284" stroke="white"/>
<path d="M277 215C264.975 228.918 244.533 264.887 258.963 297.423C273.393 329.958 264.975 358.697 258.963 369" stroke="white"/>
</svg>
